<svg width="44" height="44" viewBox="0 0 44 44" fill="none">
<path d="M27.027 11C24.8401 10.9988 22.7431 10.1294 21.197 8.58275L18.9145 6.30575C18.4002 5.79133 17.7031 5.50161 16.9757 5.5H6.875C6.15462 5.49987 5.46295 5.78242 4.9487 6.2869C4.43445 6.79137 4.13869 7.4775 4.125 8.19775L4.2515 11H1.5015L1.375 8.25C1.375 6.79131 1.95446 5.39236 2.98591 4.36091C4.01736 3.32946 5.41631 2.75 6.875 2.75H16.973C18.4316 2.75031 19.8303 3.32998 20.8615 4.3615L23.1385 6.6385C24.1697 7.67002 25.5684 8.24969 27.027 8.25V11Z" fill="currentColor"/>
<path fill-rule="evenodd" clip-rule="evenodd" d="M37.9775 11H6.02254C5.64053 11 5.2627 11.0795 4.91314 11.2336C4.56358 11.3877 4.24996 11.613 3.99227 11.895C3.73458 12.177 3.53848 12.5096 3.41645 12.8716C3.29443 13.2336 3.24916 13.617 3.28354 13.9975L5.03529 33.2475C5.09704 33.9308 5.41195 34.5663 5.9182 35.0293C6.42445 35.4923 7.08549 35.7494 7.77154 35.75H36.2285C36.9146 35.7494 37.5756 35.4923 38.0819 35.0293C38.5881 34.5663 38.903 33.9308 38.9648 33.2475L40.7165 13.9975C40.7509 13.617 40.7057 13.2336 40.5836 12.8716C40.4616 12.5096 40.2655 12.177 40.0078 11.895C39.7501 11.613 39.4365 11.3877 39.0869 11.2336C38.7374 11.0795 38.3596 11 37.9775 11ZM6.02254 8.25C5.25826 8.24992 4.50235 8.40913 3.80303 8.71748C3.10371 9.02582 2.47633 9.47653 1.96091 10.0409C1.44548 10.6052 1.05333 11.2707 0.809468 11.9951C0.565602 12.7194 0.475375 13.4866 0.544543 14.2478L2.29629 33.4977C2.42047 34.8643 3.05096 36.135 4.06398 37.0605C5.07701 37.986 6.3994 38.4995 7.77154 38.5H36.2285C37.6007 38.4995 38.9231 37.986 39.9361 37.0605C40.9491 36.135 41.5796 34.8643 41.7038 33.4977L43.4555 14.2478C43.5247 13.4866 43.4345 12.7194 43.1906 11.9951C42.9468 11.2707 42.5546 10.6052 42.0392 10.0409C41.5238 9.47653 40.8964 9.02582 40.1971 8.71748C39.4977 8.40913 38.7418 8.24992 37.9775 8.25H6.02254Z" fill="currentColor"/>
</svg>
