<svg width="10" height="14" viewBox="0 0 10 14" fill="none" xmlns="http://www.w3.org/2000/svg">
<path d="M4.99991 7.18742C6.19613 7.18742 7.16925 6.21173 7.16925 5.01235C7.16925 3.81298 6.19613 2.83729 4.99991 2.83729C3.80369 2.83729 2.83057 3.81298 2.83057 5.01235C2.83057 6.21173 3.80369 7.18742 4.99991 7.18742ZM4.99991 3.67192C5.73662 3.67192 6.33681 4.27286 6.33681 5.01235C6.33681 5.75184 5.73745 6.35278 4.99991 6.35278C4.26237 6.35278 3.66301 5.75101 3.66301 5.01235C3.66301 4.2737 4.26237 3.67192 4.99991 3.67192ZM4.6969 13.4614C4.76683 13.539 4.83426 13.5891 4.89919 13.6241L4.90252 13.6258C4.94747 13.6492 4.99159 13.6667 5.03321 13.6667C5.07483 13.6667 5.11895 13.6492 5.1639 13.6258L5.16723 13.6241C5.23216 13.5891 5.29959 13.539 5.36952 13.4614C5.36952 13.4614 9.2387 9.24229 9.62745 5.58658C9.65076 5.39795 9.66658 5.20682 9.66658 5.01235C9.66658 2.42831 7.57715 0.333374 4.99991 0.333374C2.42267 0.333374 0.333244 2.42831 0.333244 5.01235C0.333244 5.21016 0.349061 5.40296 0.373202 5.59409C0.771941 9.24814 4.6969 13.4614 4.6969 13.4614ZM4.99991 1.16801C7.11431 1.16801 8.83414 2.89237 8.83414 5.01235C8.83414 5.15341 8.82415 5.30364 8.80001 5.49811C8.50199 8.29915 5.87897 11.586 5.03404 12.5859C4.16747 11.5843 1.50699 8.30583 1.19898 5.49143C1.17651 5.30698 1.16569 5.15507 1.16569 5.01235C1.16569 2.89237 2.88551 1.16801 4.99991 1.16801Z" fill="white"/>
</svg>
