<svg width="12" height="8" viewBox="0 0 12 8" fill="none" xmlns="http://www.w3.org/2000/svg">
<path fill-rule="evenodd" clip-rule="evenodd" d="M11.8644 7.19345C11.9074 7.14923 11.9415 7.09669 11.9648 7.03885C11.988 6.98102 12 6.91901 12 6.85639C12 6.79377 11.988 6.73177 11.9648 6.67393C11.9415 6.61609 11.9074 6.56356 11.8644 6.51934L6.32661 0.80651C6.28374 0.762175 6.23282 0.727 6.17675 0.703001C6.12069 0.679001 6.06058 0.666647 5.99988 0.666647C5.93918 0.666647 5.87907 0.679001 5.82301 0.703001C5.76694 0.727001 5.71602 0.762175 5.67315 0.80651L0.135339 6.51934C0.0486841 6.60873 2.83465e-06 6.72997 2.84018e-06 6.85639C2.8457e-06 6.98281 0.0486841 7.10406 0.135339 7.19345C0.221993 7.28284 0.339521 7.33306 0.46207 7.33306C0.584618 7.33306 0.702147 7.28284 0.7888 7.19345L5.99988 1.81673L11.211 7.19345C11.2538 7.23778 11.3048 7.27296 11.3608 7.29696C11.4169 7.32096 11.477 7.33331 11.5377 7.33331C11.5984 7.33331 11.6585 7.32096 11.7146 7.29696C11.7706 7.27296 11.8216 7.23778 11.8644 7.19345Z" fill="#0061AF"/>
</svg>
