<svg width="22" height="22" viewBox="0 0 22 22" fill="none" xmlns="http://www.w3.org/2000/svg">
<path d="M11.0048 5.60928C8.02353 5.60928 5.61885 8.01396 5.61885 10.9952C5.61885 13.9765 8.02353 16.3812 11.0048 16.3812C13.986 16.3812 16.3907 13.9765 16.3907 10.9952C16.3907 8.01396 13.986 5.60928 11.0048 5.60928ZM11.0048 14.4968C9.07822 14.4968 7.50322 12.9265 7.50322 10.9952C7.50322 9.06396 9.07353 7.49365 11.0048 7.49365C12.936 7.49365 14.5063 9.06396 14.5063 10.9952C14.5063 12.9265 12.9313 14.4968 11.0048 14.4968ZM17.8673 5.38896C17.8673 6.0874 17.3048 6.64522 16.611 6.64522C15.9126 6.64522 15.3548 6.08271 15.3548 5.38896C15.3548 4.69521 15.9173 4.13271 16.611 4.13271C17.3048 4.13271 17.8673 4.69521 17.8673 5.38896ZM21.4345 6.66397C21.3548 4.98115 20.9704 3.49053 19.7376 2.2624C18.5095 1.03428 17.0188 0.649902 15.336 0.565527C13.6017 0.46709 8.40322 0.46709 6.66885 0.565527C4.99072 0.645215 3.5001 1.02959 2.26729 2.25771C1.03447 3.48584 0.654785 4.97646 0.57041 6.65928C0.471973 8.39365 0.471973 13.5921 0.57041 15.3265C0.650098 17.0093 1.03447 18.4999 2.26729 19.728C3.5001 20.9562 4.98603 21.3405 6.66885 21.4249C8.40322 21.5233 13.6017 21.5233 15.336 21.4249C17.0188 21.3452 18.5095 20.9608 19.7376 19.728C20.9657 18.4999 21.3501 17.0093 21.4345 15.3265C21.5329 13.5921 21.5329 8.39834 21.4345 6.66397ZM19.1938 17.1874C18.8282 18.1062 18.1204 18.814 17.197 19.1843C15.8142 19.7327 12.5329 19.6062 11.0048 19.6062C9.47666 19.6062 6.19072 19.728 4.8126 19.1843C3.89385 18.8187 3.18604 18.1108 2.81572 17.1874C2.26729 15.8046 2.39385 12.5233 2.39385 10.9952C2.39385 9.46709 2.27197 6.18115 2.81572 4.80303C3.18135 3.88428 3.88916 3.17646 4.8126 2.80615C6.19541 2.25771 9.47666 2.38428 11.0048 2.38428C12.5329 2.38428 15.8188 2.2624 17.197 2.80615C18.1157 3.17178 18.8235 3.87959 19.1938 4.80303C19.7423 6.18584 19.6157 9.46709 19.6157 10.9952C19.6157 12.5233 19.7423 15.8093 19.1938 17.1874Z" fill="white"/>
</svg>
