<svg width="16" height="12" viewBox="0 0 16 12" fill="none" xmlns="http://www.w3.org/2000/svg">
<path fill-rule="evenodd" clip-rule="evenodd" d="M14 1H2C1.73478 1 1.48043 1.10536 1.29289 1.29289C1.10536 1.48043 1 1.73478 1 2V10C1 10.2652 1.10536 10.5196 1.29289 10.7071C1.48043 10.8946 1.73478 11 2 11H14C14.2652 11 14.5196 10.8946 14.7071 10.7071C14.8946 10.5196 15 10.2652 15 10V2C15 1.73478 14.8946 1.48043 14.7071 1.29289C14.5196 1.10536 14.2652 1 14 1ZM2 0C1.46957 0 0.960859 0.21071 0.585786 0.58579C0.210714 0.96086 0 1.46957 0 2V10C0 10.5304 0.210714 11.0391 0.585786 11.4142C0.960859 11.7893 1.46957 12 2 12H14C14.5304 12 15.0391 11.7893 15.4142 11.4142C15.7893 11.0391 16 10.5304 16 10V2C16 1.46957 15.7893 0.96086 15.4142 0.58579C15.0391 0.21071 14.5304 0 14 0H2Z" fill="white"/>
<path fill-rule="evenodd" clip-rule="evenodd" d="M0.0711235 2.243C0.104865 2.18666 0.149376 2.13751 0.202115 2.09837C0.254854 2.05923 0.314788 2.03086 0.378492 2.01489C0.442196 1.99892 0.508423 1.99565 0.57339 2.00528C0.638356 2.01491 0.70079 2.03724 0.757123 2.071L8.00012 6.417L15.2431 2.071C15.2995 2.03725 15.3619 2.01493 15.4269 2.00531C15.4918 1.99569 15.558 1.99895 15.6217 2.01493C15.6854 2.0309 15.7454 2.05926 15.7981 2.09839C15.8509 2.13753 15.8954 2.18666 15.9291 2.243C15.9629 2.29934 15.9852 2.36177 15.9948 2.42674C16.0044 2.4917 16.0012 2.55792 15.9852 2.62162C15.9692 2.68533 15.9409 2.74526 15.9017 2.798C15.8626 2.85074 15.8135 2.89525 15.7571 2.929L8.00012 7.583L0.243123 2.93C0.186777 2.89626 0.137631 2.85175 0.0984909 2.79901C0.0593509 2.74627 0.0309845 2.68634 0.0150121 2.62263C-0.000960438 2.55893 -0.00422608 2.4927 0.00540167 2.42774C0.0150294 2.36277 0.0373619 2.30034 0.0711235 2.244V2.243Z" fill="white"/>
<path d="M6.75205 6.93204L7.18405 6.68004L6.68005 5.81604L6.24805 6.06804L6.75205 6.93204ZM0.752047 10.432L6.75205 6.93204L6.24805 6.06804L0.248047 9.568L0.752047 10.432ZM9.24805 6.93204L8.81605 6.68004L9.32005 5.81604L9.75205 6.06804L9.24805 6.93204ZM15.248 10.432L9.24805 6.93204L9.75205 6.06804L15.752 9.568L15.248 10.432Z" fill="white"/>
</svg>
