<svg width="20" height="20" viewBox="0 0 20 20" fill="none">
<path fill-rule="evenodd" clip-rule="evenodd" d="M13.2554 6.48264L13.1025 6.31367L7.59043 9.07346L7.63339 9.29666C7.73026 9.8 7.72207 10.3179 7.60933 10.818L7.55778 11.0466L13.0186 13.7954L13.1712 13.6144C13.7521 12.9263 14.5639 12.4735 15.4547 12.3411C16.3454 12.2086 17.2539 12.4056 18.0098 12.895C18.7657 13.3845 19.3171 14.1328 19.5608 14.9997C19.8045 15.8667 19.7236 16.7927 19.3333 17.6043C18.9431 18.4159 18.2702 19.0572 17.4409 19.4082C16.6116 19.7592 15.6827 19.7957 14.8284 19.5109C13.9742 19.226 13.2531 18.6394 12.8004 17.8609C12.3476 17.0825 12.1944 16.1656 12.3693 15.2822L12.4136 15.0585L6.91425 12.2905L6.76106 12.4623C6.25871 13.0257 5.59605 13.422 4.86201 13.598C4.12797 13.7739 3.35767 13.7212 2.65447 13.4468C1.95126 13.1724 1.34881 12.6895 0.927939 12.0629C0.507069 11.4363 0.287923 10.6959 0.299905 9.94117C0.311887 9.18642 0.554425 8.4534 0.994974 7.84046C1.43552 7.22752 2.053 6.76398 2.76456 6.51205C3.47612 6.26013 4.24771 6.23186 4.97579 6.43104C5.70388 6.63023 6.35362 7.04734 6.83784 7.6264L6.99009 7.80848L12.4501 5.07414L12.3961 4.84354C12.1907 3.96675 12.3121 3.04515 12.7376 2.25148C13.1631 1.45782 13.8634 0.846567 14.7073 0.532301C15.5512 0.218036 16.4808 0.22233 17.3218 0.544378C18.1627 0.866426 18.8574 1.48412 19.2755 2.28168C19.6937 3.07925 19.8066 4.00192 19.5931 4.87678C19.3796 5.75164 18.8544 6.51861 18.1159 7.03395C17.3774 7.54928 16.4763 7.7776 15.5816 7.67611C14.6868 7.57462 13.8597 7.15028 13.2554 6.48264ZM17.6263 5.6263C17.195 6.05764 16.61 6.29996 16 6.29996C15.39 6.29996 14.805 6.05764 14.3736 5.6263C13.9423 5.19497 13.7 4.60996 13.7 3.99996C13.7 3.38996 13.9423 2.80495 14.3736 2.37361C14.805 1.94228 15.39 1.69996 16 1.69996C16.61 1.69996 17.195 1.94228 17.6263 2.37361C18.0577 2.80495 18.3 3.38996 18.3 3.99996C18.3 4.60996 18.0577 5.19497 17.6263 5.6263ZM5.62632 11.6263C5.19499 12.0576 4.60998 12.3 3.99998 12.3C3.38998 12.3 2.80497 12.0576 2.37363 11.6263C1.9423 11.195 1.69998 10.61 1.69998 9.99996C1.69998 9.38996 1.9423 8.80495 2.37363 8.37361C2.80497 7.94228 3.38998 7.69996 3.99998 7.69996C4.60998 7.69996 5.19499 7.94228 5.62632 8.37361C6.05766 8.80495 6.29998 9.38996 6.29998 9.99996C6.29998 10.61 6.05766 11.195 5.62632 11.6263ZM17.6263 17.6263C17.195 18.0576 16.61 18.3 16 18.3C15.39 18.3 14.805 18.0576 14.3736 17.6263C13.9423 17.195 13.7 16.61 13.7 16C13.7 15.39 13.9423 14.8049 14.3736 14.3736C14.805 13.9423 15.39 13.7 16 13.7C16.61 13.7 17.195 13.9423 17.6263 14.3736C18.0577 14.8049 18.3 15.39 18.3 16C18.3 16.61 18.0577 17.195 17.6263 17.6263Z" fill="currentColor"/>
</svg>
