<svg width="24" height="20" viewBox="0 0 24 20" fill="none" xmlns="http://www.w3.org/2000/svg">
<path d="M21.533 5.11151C21.5482 5.32469 21.5482 5.53793 21.5482 5.75112C21.5482 12.2536 16.599 19.746 7.5533 19.746C4.76648 19.746 2.17767 18.9389 0 17.5379C0.395953 17.5836 0.776625 17.5988 1.18781 17.5988C3.48727 17.5988 5.60405 16.8222 7.29441 15.4973C5.13197 15.4516 3.31978 14.0354 2.69541 12.0861C3 12.1318 3.30455 12.1623 3.62437 12.1623C4.06598 12.1623 4.50764 12.1013 4.91878 11.9948C2.66498 11.5379 0.974578 9.55821 0.974578 7.16735V7.10646C1.62937 7.47194 2.39086 7.70037 3.19791 7.73079C1.87303 6.84752 1.00505 5.33993 1.00505 3.63433C1.00505 2.72065 1.24866 1.88308 1.67508 1.15212C4.09641 4.13688 7.73602 6.08608 11.8172 6.29932C11.7411 5.93383 11.6954 5.55316 11.6954 5.17244C11.6954 2.46176 13.8883 0.253662 16.6141 0.253662C18.0304 0.253662 19.3095 0.847569 20.208 1.80696C21.3197 1.59377 22.3857 1.18258 23.3299 0.619147C22.9643 1.7613 22.1877 2.72069 21.1674 3.32979C22.1573 3.22324 23.1167 2.94907 23.9999 2.5684C23.33 3.54297 22.4924 4.41096 21.533 5.11151Z" fill="white"/>
</svg>
