<svg width="24" height="14" viewBox="0 0 24 14" fill="none" xmlns="http://www.w3.org/2000/svg">
<path d="M22.7082 1.23766C22.8624 0.716829 22.7082 0.333496 21.9666 0.333496H19.5124C18.8874 0.333496 18.5999 0.662663 18.4457 1.02933C18.4457 1.02933 17.1957 4.07516 15.4291 6.05016C14.8582 6.621 14.5957 6.80433 14.2832 6.80433C14.1291 6.80433 13.8916 6.621 13.8916 6.10016V1.23766C13.8916 0.612663 13.7166 0.333496 13.1999 0.333496H9.34157C8.9499 0.333496 8.71657 0.625163 8.71657 0.895996C8.71657 1.48766 9.5999 1.62516 9.69157 3.29183V6.9085C9.69157 7.70016 9.5499 7.846 9.2374 7.846C8.40407 7.846 6.37907 4.78766 5.17907 1.28766C4.9374 0.608496 4.6999 0.333496 4.07074 0.333496H1.61657C0.916569 0.333496 0.774902 0.662663 0.774902 1.02933C0.774902 1.67933 1.60824 4.9085 4.65407 9.17517C6.68324 12.0877 9.54157 13.6668 12.1416 13.6668C13.7041 13.6668 13.8957 13.3168 13.8957 12.7127C13.8957 9.92933 13.7541 9.66683 14.5374 9.66683C14.8999 9.66683 15.5249 9.85017 16.9832 11.2543C18.6499 12.921 18.9249 13.6668 19.8582 13.6668H22.3124C23.0124 13.6668 23.3666 13.3168 23.1624 12.6252C22.6957 11.171 19.5416 8.17933 19.3999 7.97933C19.0374 7.51266 19.1416 7.30433 19.3999 6.88766C19.4041 6.8835 22.3999 2.66683 22.7082 1.23766Z" fill="white"/>
</svg>
